<svg width="43" height="80" xmlns="http://www.w3.org/2000/svg">
 <!-- Generator: Sketch 41.2 (35397) - http://www.bohemiancoding.com/sketch -->
 <title>Shape</title>
 <desc>Created with Sketch.</desc>

 <g>
  <title>background</title>
  <rect fill="none" id="canvas_background" height="82" width="45" y="-1" x="-1"/>
 </g>
 <g>
  <title>Layer 1</title>
  <g fill="#06d79d" transform="rotate(-70, -21.3763, 61.1162)" id="noun_786893_cc">
   <g id="Group">
    <path id="Shape" d="m42.429211,62.652367c3.926422,13.685272 0.070877,29.056732 -9.365509,39.92778c-5.916,6.81601 -14.083004,11.195007 -22.906003,12.813995c-5.762001,1.058014 -12.161999,0.830017 -17.512001,-1.628998c-4.453999,-2.048004 -8.230999,-5.20401 -12.820998,-7.039001c-0.586002,-0.234009 -1.007999,0.428009 -0.923,0.921997c0.536999,3.112 0.571999,6.005005 0.306999,9.134003l1.5,0c-0.115002,-1.248993 -1.291,-8.528992 0.437,-8.872009c3.124,-0.620972 6.284999,-1.234985 9.479999,-1.043976c0.967001,0.057983 0.961002,-1.442017 0,-1.5c-3.761999,-0.225006 -7.529998,0.630981 -11.199,1.359985c-0.323997,0.063995 -0.550999,0.40802 -0.550999,0.722992c0.002998,3.121002 0.047001,6.223999 0.333,9.333008c0.089001,0.963013 1.417999,0.968018 1.5,0c0.276001,-3.244995 0.193001,-6.326996 -0.359001,-9.531982c-0.307999,0.307983 -0.614998,0.61499 -0.923,0.921997c5.388001,2.152985 9.837001,5.979004 15.253001,8.063995c4.422001,1.701996 10.099998,1.485992 14.701,0.783997c8.918,-1.360992 16.809003,-5.441986 23.224996,-11.76001c10.082672,-9.930191 14.780632,-25.202316 12.189438,-39.110077c-0.553139,-2.968887 -3.335678,-6.877686 -2.365921,-3.497696z"/>
   </g>
  </g>
 </g>
</svg>